<?xml version="1.0" encoding="UTF-8" standalone="no"?>
<svg
   xmlns:dc="http://purl.org/dc/elements/1.1/"
   xmlns:cc="http://creativecommons.org/ns#"
   xmlns:rdf="http://www.w3.org/1999/02/22-rdf-syntax-ns#"
   xmlns:svg="http://www.w3.org/2000/svg"
   xmlns="http://www.w3.org/2000/svg"
   xmlns:sodipodi="http://sodipodi.sourceforge.net/DTD/sodipodi-0.dtd"
   xmlns:inkscape="http://www.inkscape.org/namespaces/inkscape"
   fill="none"
   aria-hidden="true"
   viewBox="0 0 24 24"
   role="img"
   version="1.1"
   id="svg6"
   sodipodi:docname="apple.svg"
   inkscape:version="0.92.4 (5da689c313, 2019-01-14)">
  <metadata
     id="metadata12">
    <rdf:RDF>
      <cc:Work
         rdf:about="">
        <dc:format>image/svg+xml</dc:format>
        <dc:type
           rdf:resource="http://purl.org/dc/dcmitype/StillImage" />
      </cc:Work>
    </rdf:RDF>
  </metadata>
  <defs
     id="defs10" />
  <sodipodi:namedview
     pagecolor="#ffffff"
     bordercolor="#666666"
     borderopacity="1"
     objecttolerance="10"
     gridtolerance="10"
     guidetolerance="10"
     inkscape:pageopacity="0"
     inkscape:pageshadow="2"
     inkscape:window-width="1920"
     inkscape:window-height="991"
     id="namedview8"
     showgrid="false"
     inkscape:zoom="9.8333333"
     inkscape:cx="-0.40677966"
     inkscape:cy="12"
     inkscape:window-x="-9"
     inkscape:window-y="-9"
     inkscape:window-maximized="1"
     inkscape:current-layer="svg6" />
  <path
     vector-effect="non-scaling-stroke"
     stroke="var(--icon-color, #001e00)"
     stroke-linecap="round"
     stroke-linejoin="round"
     stroke-width="1.5"
     d="M15.117 3a3.907 3.907 0 01-.87 2.918 3.607 3.607 0 01-2.778 1.409 3.657 3.657 0 01.9-2.848A4.287 4.287 0 0115.117 3z"
     clip-rule="evenodd"
     id="path2"
     style="stroke:#ffffff" />
  <path
     vector-effect="non-scaling-stroke"
     stroke="var(--icon-color, #001e00)"
     stroke-linecap="round"
     stroke-linejoin="round"
     stroke-width="1.5"
     d="M18.295 18.381c.453-.69.844-1.42 1.17-2.178a3.997 3.997 0 01-.53-7.204 4.586 4.586 0 00-3.458-1.83c-.705.01-1.401.16-2.048.44-.433.22-.905.353-1.389.39a4.726 4.726 0 01-1.559-.36c-.6-.25-1.24-.388-1.888-.41a4.676 4.676 0 00-3.777 2.26c-1.31 1.998-1.09 5.805.999 8.992.79 1.2 1.808 2.508 3.127 2.508.46-.01.91-.123 1.32-.33a3.997 3.997 0 013.587 0c.395.217.838.334 1.289.34 1.329-.01 2.398-1.459 3.157-2.618z"
     clip-rule="evenodd"
     id="path4"
     style="stroke:#ffffff" />
</svg>
