<svg xmlns="http://www.w3.org/2000/svg" fill="none" aria-hidden="true" viewBox="0 0 24 24" role="img"><path vector-effect="non-scaling-stroke" stroke="var(--icon-color, #001e00)" stroke-linecap="round" stroke-linejoin="round" stroke-width="1.5" d="M20.981 13.7v3.287a2.997 2.997 0 01-2.997 2.997H5.998A2.997 2.997 0 013 16.986v-9.99A2.997 2.997 0 015.997 4h4.995m5.25 2.059l2.737 2.757"></path><path vector-effect="non-scaling-stroke" stroke="var(--icon-color, #001e00)" stroke-linecap="round" stroke-linejoin="round" stroke-width="1.5" d="M11.99 15.358l-1.489.29a.999.999 0 01-.49 0 1.119 1.119 0 01-.42-.25 1 1 0 01-.249-.41.909.909 0 010-.489l.28-1.508c.085-.38.28-.728.56-1l7.362-7.362a1.85 1.85 0 01.649-.44c.247-.116.516-.18.79-.189.264.002.525.056.768.16.247.1.471.25.66.44a2 2 0 01.44.649 2.082 2.082 0 010 1.548 1.998 1.998 0 01-.44.65l-7.423 7.352c-.27.28-.618.474-.999.56z"></path></svg>