<?xml version="1.0" encoding="UTF-8" standalone="no"?>
<svg
   xmlns:dc="http://purl.org/dc/elements/1.1/"
   xmlns:cc="http://creativecommons.org/ns#"
   xmlns:rdf="http://www.w3.org/1999/02/22-rdf-syntax-ns#"
   xmlns:svg="http://www.w3.org/2000/svg"
   xmlns="http://www.w3.org/2000/svg"
   xmlns:sodipodi="http://sodipodi.sourceforge.net/DTD/sodipodi-0.dtd"
   xmlns:inkscape="http://www.inkscape.org/namespaces/inkscape"
   fill="none"
   aria-hidden="true"
   viewBox="0 0 24 24"
   role="img"
   version="1.1"
   id="svg8"
   sodipodi:docname="linkdn.svg"
   inkscape:version="0.92.4 (5da689c313, 2019-01-14)">
  <metadata
     id="metadata14">
    <rdf:RDF>
      <cc:Work
         rdf:about="">
        <dc:format>image/svg+xml</dc:format>
        <dc:type
           rdf:resource="http://purl.org/dc/dcmitype/StillImage" />
      </cc:Work>
    </rdf:RDF>
  </metadata>
  <defs
     id="defs12" />
  <sodipodi:namedview
     pagecolor="#ffffff"
     bordercolor="#666666"
     borderopacity="1"
     objecttolerance="10"
     gridtolerance="10"
     guidetolerance="10"
     inkscape:pageopacity="0"
     inkscape:pageshadow="2"
     inkscape:window-width="1920"
     inkscape:window-height="991"
     id="namedview10"
     showgrid="false"
     inkscape:zoom="9.8333333"
     inkscape:cx="-0.40677966"
     inkscape:cy="12"
     inkscape:window-x="-9"
     inkscape:window-y="-9"
     inkscape:window-maximized="1"
     inkscape:current-layer="svg8" />
  <path
     vector-effect="non-scaling-stroke"
     stroke="var(--icon-color, #001e00)"
     stroke-linecap="round"
     stroke-linejoin="round"
     stroke-width="1.5"
     d="M19 3H5a2 2 0 00-2 2v14a2 2 0 002 2h14a2 2 0 002-2V5a2 2 0 00-2-2zM7.18 9.61v8m4.37-8v8"
     id="path2"
     style="stroke:#ffffff" />
  <path
     fill="var(--icon-color, #001e00)"
     vector-effect="non-scaling-stroke"
     stroke="var(--icon-color, #001e00)"
     stroke-linecap="round"
     stroke-linejoin="round"
     stroke-width="1.5"
     d="M7.18 7.11a.36.36 0 100-.72.36.36 0 000 .72z"
     id="path4"
     style="stroke:#ffffff" />
  <path
     vector-effect="non-scaling-stroke"
     stroke="var(--icon-color, #001e00)"
     stroke-linecap="round"
     stroke-linejoin="round"
     stroke-width="1.5"
     d="M11.55 12.51a2.81 2.81 0 012.82-2.81v0a2.81 2.81 0 012.81 2.81v5.1"
     id="path6"
     style="stroke:#ffffff" />
</svg>
