<svg xmlns="http://www.w3.org/2000/svg" xmlns:xlink="http://www.w3.org/1999/xlink" viewBox="0 0 512 512" width="512" height="512" focusable="false" preserveAspectRatio="xMidYMid meet" style="width: 100%;height: 100%;transform: translate3d(0px, 0px, 0px);content-visibility: visible;"><defs><clipPath id="__lottie_element_2"><rect width="512" height="512" x="0" y="0"></rect></clipPath><g id="__lottie_element_11"><g transform="matrix(2.049999952316284,0,0,2.049999952316284,256.1654052734375,255.85169982910156)" opacity="1" style="display: block;"><g opacity="1" transform="matrix(1,0,0,1,0,0)"><path fill="rgb(255,255,255)" fill-opacity="1" d=" M0,-85 C46.9114990234375,-85 85,-46.9114990234375 85,0 C85,46.9114990234375 46.9114990234375,85 0,85 C-46.9114990234375,85 -85,46.9114990234375 -85,0 C-85,-46.9114990234375 -46.9114990234375,-85 0,-85z M0,-115 C63.46849822998047,-115 115,-63.46849822998047 115,0 C115,63.46849822998047 63.46849822998047,115 0,115 C-63.46849822998047,115 -115,63.46849822998047 -115,0 C-115,-63.46849822998047 -63.46849822998047,-115 0,-115z"></path></g></g></g><linearGradient id="__lottie_element_17" spreadMethod="pad" gradientUnits="userSpaceOnUse" x1="-61.768001556396484" y1="33.569000244140625" x2="217.38099670410156" y2="-101.80999755859375"><stop offset="4%" stop-color="rgb(20,168,0)"></stop><stop offset="32%" stop-color="rgb(19,126,39)"></stop><stop offset="61%" stop-color="rgb(19,84,78)"></stop></linearGradient><mask id="__lottie_element_11_1" mask-type="alpha"><use xlink:href="#__lottie_element_11"></use></mask><g id="__lottie_element_18"><g transform="matrix(2.049999952316284,0,0,2.049999952316284,256.1654052734375,255.85169982910156)" opacity="1" style="display: block;"><g opacity="1" transform="matrix(1,0,0,1,0,0)"><path fill="rgb(255,255,255)" fill-opacity="1" d=" M0,-85 C46.9114990234375,-85 85,-46.9114990234375 85,0 C85,46.9114990234375 46.9114990234375,85 0,85 C-46.9114990234375,85 -85,46.9114990234375 -85,0 C-85,-46.9114990234375 -46.9114990234375,-85 0,-85z M0,-115 C63.46849822998047,-115 115,-63.46849822998047 115,0 C115,63.46849822998047 63.46849822998047,115 0,115 C-63.46849822998047,115 -115,63.46849822998047 -115,0 C-115,-63.46849822998047 -63.46849822998047,-115 0,-115z"></path></g></g></g><linearGradient id="__lottie_element_24" spreadMethod="pad" gradientUnits="userSpaceOnUse" x1="-31.816999435424805" y1="126.50599670410156" x2="56.176998138427734" y2="-156.1179962158203"><stop offset="7%" stop-color="rgb(145,230,179)"></stop><stop offset="16%" stop-color="rgb(139,227,174)"></stop><stop offset="25%" stop-color="rgb(133,225,170)"></stop><stop offset="35%" stop-color="rgb(161,240,193)"></stop><stop offset="44%" stop-color="rgb(189,255,215)"></stop><stop offset="59%" stop-color="rgb(105,211,108)"></stop><stop offset="74%" stop-color="rgb(20,168,0)"></stop><stop offset="87%" stop-color="rgb(19,126,39)"></stop><stop offset="100%" stop-color="rgb(19,84,78)"></stop></linearGradient><mask id="__lottie_element_18_1" mask-type="alpha"><use xlink:href="#__lottie_element_18"></use></mask><g id="__lottie_element_25"><g transform="matrix(2.049999952316284,0,0,2.049999952316284,256.1654052734375,255.85169982910156)" opacity="1" style="display: block;"><g opacity="1" transform="matrix(1,0,0,1,0,0)"><path fill="rgb(255,255,255)" fill-opacity="1" d=" M0,-85 C46.9114990234375,-85 85,-46.9114990234375 85,0 C85,46.9114990234375 46.9114990234375,85 0,85 C-46.9114990234375,85 -85,46.9114990234375 -85,0 C-85,-46.9114990234375 -46.9114990234375,-85 0,-85z M0,-115 C63.46849822998047,-115 115,-63.46849822998047 115,0 C115,63.46849822998047 63.46849822998047,115 0,115 C-63.46849822998047,115 -115,63.46849822998047 -115,0 C-115,-63.46849822998047 -63.46849822998047,-115 0,-115z"></path></g></g></g><linearGradient id="__lottie_element_31" spreadMethod="pad" gradientUnits="userSpaceOnUse" x1="107.80799865722656" y1="17.402000427246094" x2="-146.48500061035156" y2="-16.948999404907227"><stop offset="0%" stop-color="rgb(145,230,179)"></stop><stop offset="13%" stop-color="rgb(145,230,179)"></stop><stop offset="25%" stop-color="rgb(145,230,179)"></stop><stop offset="39%" stop-color="rgb(73,218,185)"></stop><stop offset="52%" stop-color="rgb(1,205,190)"></stop><stop offset="63%" stop-color="rgb(10,186,95)"></stop><stop offset="74%" stop-color="rgb(20,168,0)"></stop><stop offset="87%" stop-color="rgb(40,149,18)"></stop><stop offset="100%" stop-color="rgb(60,130,36)"></stop></linearGradient><mask id="__lottie_element_33"><path fill="url(#__lottie_element_32)" d=" M0,117.5 C64.89299774169922,117.5 117.5,64.89299774169922 117.5,0 C117.5,-64.89299774169922 64.89299774169922,-117.5 0,-117.5 C-64.89299774169922,-117.5 -117.5,-64.89299774169922 -117.5,0 C-117.5,64.89299774169922 -64.89299774169922,117.5 0,117.5z"></path></mask><linearGradient id="__lottie_element_32" spreadMethod="pad" gradientUnits="userSpaceOnUse" x1="107.80799865722656" y1="17.402000427246094" x2="-146.48500061035156" y2="-16.948999404907227"><stop stop-color="rgb(255,255,255)" offset="0%" stop-opacity="0.30000001192092896"></stop><stop stop-color="rgb(255,255,255)" offset="13%" stop-opacity="0.6499999761581421"></stop><stop stop-color="rgb(255,255,255)" offset="25%" stop-opacity="1"></stop><stop stop-color="rgb(255,255,255)" offset="39%" stop-opacity="0.6949999928474426"></stop><stop stop-color="rgb(255,255,255)" offset="52%" stop-opacity="0.38999998569488525"></stop><stop stop-color="rgb(255,255,255)" offset="63%" stop-opacity="0.4749999940395355"></stop><stop stop-color="rgb(255,255,255)" offset="74%" stop-opacity="0.5600000023841858"></stop><stop stop-color="rgb(255,255,255)" offset="87%" stop-opacity="0.7799999713897705"></stop><stop stop-color="rgb(255,255,255)" offset="100%" stop-opacity="1"></stop><stop stop-color="rgb(255,255,255)" offset="100%" stop-opacity="1"></stop><stop stop-color="rgb(255,255,255)" offset="100%" stop-opacity="1"></stop></linearGradient><mask id="__lottie_element_25_1" mask-type="alpha"><use xlink:href="#__lottie_element_25"></use></mask><g id="__lottie_element_34"><g transform="matrix(2.049999952316284,0,0,2.049999952316284,256.1654052734375,255.85169982910156)" opacity="1" style="display: block;"><g opacity="1" transform="matrix(1,0,0,1,0,0)"><path fill="rgb(255,255,255)" fill-opacity="1" d=" M0,-85 C46.9114990234375,-85 85,-46.9114990234375 85,0 C85,46.9114990234375 46.9114990234375,85 0,85 C-46.9114990234375,85 -85,46.9114990234375 -85,0 C-85,-46.9114990234375 -46.9114990234375,-85 0,-85z M0,-115 C63.46849822998047,-115 115,-63.46849822998047 115,0 C115,63.46849822998047 63.46849822998047,115 0,115 C-63.46849822998047,115 -115,63.46849822998047 -115,0 C-115,-63.46849822998047 -63.46849822998047,-115 0,-115z"></path></g></g></g><linearGradient id="__lottie_element_40" spreadMethod="pad" gradientUnits="userSpaceOnUse" x1="-61.768001556396484" y1="33.569000244140625" x2="217.38099670410156" y2="-101.80999755859375"><stop offset="4%" stop-color="rgb(20,168,0)"></stop><stop offset="32%" stop-color="rgb(19,126,39)"></stop><stop offset="61%" stop-color="rgb(19,84,78)"></stop></linearGradient><mask id="__lottie_element_34_1" mask-type="alpha"><use xlink:href="#__lottie_element_34"></use></mask><g id="__lottie_element_41"><g transform="matrix(2.049999952316284,0,0,2.049999952316284,256.1654052734375,255.85169982910156)" opacity="1" style="display: block;"><g opacity="1" transform="matrix(1,0,0,1,0,0)"><path fill="rgb(255,255,255)" fill-opacity="1" d=" M0,-85 C46.9114990234375,-85 85,-46.9114990234375 85,0 C85,46.9114990234375 46.9114990234375,85 0,85 C-46.9114990234375,85 -85,46.9114990234375 -85,0 C-85,-46.9114990234375 -46.9114990234375,-85 0,-85z M0,-115 C63.46849822998047,-115 115,-63.46849822998047 115,0 C115,63.46849822998047 63.46849822998047,115 0,115 C-63.46849822998047,115 -115,63.46849822998047 -115,0 C-115,-63.46849822998047 -63.46849822998047,-115 0,-115z"></path></g></g></g><linearGradient id="__lottie_element_47" spreadMethod="pad" gradientUnits="userSpaceOnUse" x1="-31.816999435424805" y1="126.50599670410156" x2="56.176998138427734" y2="-156.1179962158203"><stop offset="7%" stop-color="rgb(145,230,179)"></stop><stop offset="16%" stop-color="rgb(139,227,174)"></stop><stop offset="25%" stop-color="rgb(133,225,170)"></stop><stop offset="35%" stop-color="rgb(161,240,193)"></stop><stop offset="44%" stop-color="rgb(189,255,215)"></stop><stop offset="59%" stop-color="rgb(105,211,108)"></stop><stop offset="74%" stop-color="rgb(20,168,0)"></stop><stop offset="87%" stop-color="rgb(19,126,39)"></stop><stop offset="100%" stop-color="rgb(19,84,78)"></stop></linearGradient><mask id="__lottie_element_41_1" mask-type="alpha"><use xlink:href="#__lottie_element_41"></use></mask><g id="__lottie_element_48"><g transform="matrix(2.049999952316284,0,0,2.049999952316284,256.1654052734375,255.85169982910156)" opacity="1" style="display: block;"><g opacity="1" transform="matrix(1,0,0,1,0,0)"><path fill="rgb(255,255,255)" fill-opacity="1" d=" M0,-85 C46.9114990234375,-85 85,-46.9114990234375 85,0 C85,46.9114990234375 46.9114990234375,85 0,85 C-46.9114990234375,85 -85,46.9114990234375 -85,0 C-85,-46.9114990234375 -46.9114990234375,-85 0,-85z M0,-115 C63.46849822998047,-115 115,-63.46849822998047 115,0 C115,63.46849822998047 63.46849822998047,115 0,115 C-63.46849822998047,115 -115,63.46849822998047 -115,0 C-115,-63.46849822998047 -63.46849822998047,-115 0,-115z"></path></g></g></g><linearGradient id="__lottie_element_54" spreadMethod="pad" gradientUnits="userSpaceOnUse" x1="107.80799865722656" y1="17.402000427246094" x2="-146.48500061035156" y2="-16.948999404907227"><stop offset="0%" stop-color="rgb(145,230,179)"></stop><stop offset="13%" stop-color="rgb(145,230,179)"></stop><stop offset="25%" stop-color="rgb(145,230,179)"></stop><stop offset="39%" stop-color="rgb(73,218,185)"></stop><stop offset="52%" stop-color="rgb(1,205,190)"></stop><stop offset="63%" stop-color="rgb(10,186,95)"></stop><stop offset="74%" stop-color="rgb(20,168,0)"></stop><stop offset="87%" stop-color="rgb(40,149,18)"></stop><stop offset="100%" stop-color="rgb(60,130,36)"></stop></linearGradient><mask id="__lottie_element_56"><path fill="url(#__lottie_element_55)" d=" M0,117.5 C64.89299774169922,117.5 117.5,64.89299774169922 117.5,0 C117.5,-64.89299774169922 64.89299774169922,-117.5 0,-117.5 C-64.89299774169922,-117.5 -117.5,-64.89299774169922 -117.5,0 C-117.5,64.89299774169922 -64.89299774169922,117.5 0,117.5z"></path></mask><linearGradient id="__lottie_element_55" spreadMethod="pad" gradientUnits="userSpaceOnUse" x1="107.80799865722656" y1="17.402000427246094" x2="-146.48500061035156" y2="-16.948999404907227"><stop stop-color="rgb(255,255,255)" offset="0%" stop-opacity="0.30000001192092896"></stop><stop stop-color="rgb(255,255,255)" offset="13%" stop-opacity="0.6499999761581421"></stop><stop stop-color="rgb(255,255,255)" offset="25%" stop-opacity="1"></stop><stop stop-color="rgb(255,255,255)" offset="39%" stop-opacity="0.6949999928474426"></stop><stop stop-color="rgb(255,255,255)" offset="52%" stop-opacity="0.38999998569488525"></stop><stop stop-color="rgb(255,255,255)" offset="63%" stop-opacity="0.4749999940395355"></stop><stop stop-color="rgb(255,255,255)" offset="74%" stop-opacity="0.5600000023841858"></stop><stop stop-color="rgb(255,255,255)" offset="87%" stop-opacity="0.7799999713897705"></stop><stop stop-color="rgb(255,255,255)" offset="100%" stop-opacity="1"></stop><stop stop-color="rgb(255,255,255)" offset="100%" stop-opacity="1"></stop><stop stop-color="rgb(255,255,255)" offset="100%" stop-opacity="1"></stop></linearGradient><mask id="__lottie_element_48_1" mask-type="alpha"><use xlink:href="#__lottie_element_48"></use></mask></defs><g clip-path="url(#__lottie_element_2)"><g transform="matrix(2.049999952316284,0,0,2.049999952316284,256.1654052734375,255.85169982910156)" opacity="1" style="display: block;"><g opacity="1" transform="matrix(1,0,0,1,0,0)"><path fill="rgb(255,255,255)" fill-opacity="1" d=" M0,-85 C46.9114990234375,-85 85,-46.9114990234375 85,0 C85,46.9114990234375 46.9114990234375,85 0,85 C-46.9114990234375,85 -85,46.9114990234375 -85,0 C-85,-46.9114990234375 -46.9114990234375,-85 0,-85z M0,-115 C63.46849822998047,-115 115,-63.46849822998047 115,0 C115,63.46849822998047 63.46849822998047,115 0,115 C-63.46849822998047,115 -115,63.46849822998047 -115,0 C-115,-63.46849822998047 -63.46849822998047,-115 0,-115z"></path></g></g><g mask="url(#__lottie_element_48_1)" style="display: none;"><g transform="matrix(-1.4786376953125,-1.5642526149749756,1.5642526149749756,-1.4786376953125,262.75,247.5)" opacity="0.007099624672341918"><g opacity="1" transform="matrix(1,0,0,1,0,0)"><path fill="url(#__lottie_element_54)" mask="url(#__lottie_element_56)" fill-opacity="1" d="M0 0 M0,117.5 C64.89299774169922,117.5 117.5,64.89299774169922 117.5,0 C117.5,-64.89299774169922 64.89299774169922,-117.5 0,-117.5 C-64.89299774169922,-117.5 -117.5,-64.89299774169922 -117.5,0 C-117.5,64.89299774169922 -64.89299774169922,117.5 0,117.5z"></path></g></g></g><g mask="url(#__lottie_element_41_1)" style="display: none;"><g transform="matrix(-1.7866861820220947,-1.3757823705673218,1.3757823705673218,-1.7866861820220947,267.97332763671875,240.97869873046875)" opacity="0.0055232637976247645"><g opacity="1" transform="matrix(1,0,0,1,0,0)"><path fill="url(#__lottie_element_47)" fill-opacity="1" d=" M0,109.625 C60.54399871826172,109.625 109.625,60.54399871826172 109.625,0 C109.625,-60.54399871826172 60.54399871826172,-109.625 0,-109.625 C-60.54399871826172,-109.625 -109.625,-60.54399871826172 -109.625,0 C-109.625,60.54399871826172 -60.54399871826172,109.625 0,109.625z"></path></g></g></g><g mask="url(#__lottie_element_34_1)" style="display: none;"><g transform="matrix(-0.04442921653389931,-2.603120803833008,2.603120803833008,-0.04442921653389931,261.9465026855469,247.5137176513672)" opacity="0.005591309282891217"><g opacity="1" transform="matrix(1,0,0,1,0,0)"><path fill="url(#__lottie_element_40)" fill-opacity="1" d=" M0,95.91200256347656 C52.97100067138672,95.91200256347656 95.91200256347656,52.97100067138672 95.91200256347656,0 C95.91200256347656,-52.97100067138672 52.97100067138672,-95.91200256347656 0,-95.91200256347656 C-52.97100067138672,-95.91200256347656 -95.91200256347656,-52.97100067138672 -95.91200256347656,0 C-95.91200256347656,52.97100067138672 -52.97100067138672,95.91200256347656 0,95.91200256347656z"></path></g></g></g><g mask="url(#__lottie_element_25_1)" style="display: block;"><g transform="matrix(2.0450375080108643,-0.6716228127479553,0.6716228127479553,2.0450375080108643,262.75,247.5)" opacity="1"><g opacity="1" transform="matrix(1,0,0,1,0,0)"><path fill="url(#__lottie_element_31)" mask="url(#__lottie_element_33)" fill-opacity="1" d="M0 0 M0,117.5 C64.89299774169922,117.5 117.5,64.89299774169922 117.5,0 C117.5,-64.89299774169922 64.89299774169922,-117.5 0,-117.5 C-64.89299774169922,-117.5 -117.5,-64.89299774169922 -117.5,0 C-117.5,64.89299774169922 -64.89299774169922,117.5 0,117.5z"></path></g></g></g><g mask="url(#__lottie_element_18_1)" style="display: block;"><g transform="matrix(1.9124137163162231,-0.6280670166015625,0.6280670166015625,1.9124137163162231,265.2046203613281,255.48658752441406)" opacity="1"><g opacity="1" transform="matrix(1,0,0,1,0,0)"><path fill="url(#__lottie_element_24)" fill-opacity="1" d=" M0,109.625 C60.54399871826172,109.625 109.625,60.54399871826172 109.625,0 C109.625,-60.54399871826172 60.54399871826172,-109.625 0,-109.625 C-60.54399871826172,-109.625 -109.625,-60.54399871826172 -109.625,0 C-109.625,60.54399871826172 -60.54399871826172,109.625 0,109.625z"></path></g></g></g><g mask="url(#__lottie_element_11_1)" style="display: block;"><g transform="matrix(1.918416976928711,-0.6300386190414429,0.6300386190414429,1.918416976928711,262.499267578125,246.7365264892578)" opacity="1"><g opacity="1" transform="matrix(1,0,0,1,0,0)"><path fill="url(#__lottie_element_17)" fill-opacity="1" d=" M0,95.91200256347656 C52.97100067138672,95.91200256347656 95.91200256347656,52.97100067138672 95.91200256347656,0 C95.91200256347656,-52.97100067138672 52.97100067138672,-95.91200256347656 0,-95.91200256347656 C-52.97100067138672,-95.91200256347656 -95.91200256347656,-52.97100067138672 -95.91200256347656,0 C-95.91200256347656,52.97100067138672 -52.97100067138672,95.91200256347656 0,95.91200256347656z"></path></g></g></g><g transform="matrix(2.049999952316284,0,0,2.049999952316284,256.1654052734375,255.85169982910156)" opacity="1" style="display: block;"><g opacity="1" transform="matrix(1,0,0,1,0,0)"><path fill="rgb(255,255,255)" fill-opacity="1" d=" M0,84.70700073242188 C46.78200149536133,84.70700073242188 84.70700073242188,46.78200149536133 84.70700073242188,0 C84.70700073242188,-46.78200149536133 46.78200149536133,-84.70700073242188 0,-84.70700073242188 C-46.78200149536133,-84.70700073242188 -84.70700073242188,-46.78200149536133 -84.70700073242188,0 C-84.70700073242188,46.78200149536133 -46.78200149536133,84.70700073242188 0,84.70700073242188z"></path></g></g><g transform="matrix(2.049999952316284,0,0,2.049999952316284,264.78155517578125,263.64990234375)" opacity="1" style="display: block;"><g opacity="1" transform="matrix(1,0,0,1,0,0)"><path fill="rgb(20,168,0)" fill-opacity="1" d=" M24.079999923706055,4.616000175476074 C27.292999267578125,6.456999778747559 30.857999801635742,7.514999866485596 34.58000183105469,7.710999965667725 C34.58000183105469,7.710999965667725 34.58000183105469,7.75 34.58000183105469,7.75 C43.63100051879883,7.75 50.68299865722656,0.46299999952316284 50.68299865722656,-9.920000076293945 C50.68299865722656,-20.30299949645996 43.66999816894531,-27.59000015258789 34.58000183105469,-27.59000015258789 C25.489999771118164,-27.59000015258789 18.594999313354492,-21.71299934387207 16.166000366210938,-2.9070000648498535 C18.202999114990234,0.18799999356269836 20.867000579833984,2.7750000953674316 24.079999923706055,4.616000175476074z M55.42399978637695,-30.645999908447266 C58.12699890136719,-27.94300079345703 60.24300003051758,-24.690000534057617 61.65299987792969,-21.125 C61.65299987792969,-21.125 61.61399841308594,-21.125 61.61399841308594,-21.125 C63.06399917602539,-17.559999465942383 63.72999954223633,-13.758999824523926 63.652000427246094,-9.958999633789062 C63.72999954223633,-6.158999919891357 63.0629997253418,-2.3580000400543213 61.65299987792969,1.2070000171661377 C60.24300003051758,4.771999835968018 58.12699890136719,8.024999618530273 55.42399978637695,10.727999687194824 C52.72100067138672,13.470999717712402 49.46799850463867,15.586000442504883 45.90299987792969,17.075000762939453 C42.3380012512207,18.524999618530273 38.53799819946289,19.229999542236328 34.659000396728516,19.229999542236328 C34.659000396728516,19.229999542236328 33.444000244140625,19.229999542236328 33.444000244140625,19.229999542236328 C28.232999801635742,19.072999954223633 23.100000381469727,17.506000518798828 18.711999893188477,14.762999534606934 C17.027000427246094,13.784000396728516 15.420999526977539,12.64799976348877 13.932000160217285,11.394000053405762 C13.932000160217285,11.394000053405762 9.347999572753906,39.21200180053711 9.347999572753906,39.21200180053711 C9.347999572753906,39.21200180053711 -3.8550000190734863,39.21200180053711 -3.8550000190734863,39.21200180053711 C-3.8550000190734863,39.21200180053711 2.805000066757202,-0.0860000029206276 2.805000066757202,-0.0860000029206276 C-3.1110000610351562,-8.744999885559082 -7.460000038146973,-18.3439998626709 -10.12399959564209,-28.413000106811523 C-10.12399959564209,-28.413000106811523 -10.12399959564209,-9.762999534606934 -10.12399959564209,-9.762999534606934 C-10.12399959564209,7.241000175476074 -21.016000747680664,19.152000427246094 -36.6879997253418,19.152000427246094 C-40.37099838256836,19.270000457763672 -44.05400085449219,18.52400016784668 -47.42300033569336,17.11400032043457 C-50.79199981689453,15.704000473022461 -53.8489990234375,13.588000297546387 -56.31700134277344,10.885000228881836 C-61.2140007019043,5.164999961853027 -63.87799835205078,-2.2009999752044678 -63.643001556396484,-9.762999534606934 C-63.643001556396484,-9.762999534606934 -63.643001556396484,-37.54199981689453 -63.643001556396484,-37.54199981689453 C-63.643001556396484,-37.54199981689453 -50.79199981689453,-37.54199981689453 -50.79199981689453,-37.54199981689453 C-50.79199981689453,-37.54199981689453 -50.79199981689453,-9.762999534606934 -50.79199981689453,-9.762999534606934 C-50.79199981689453,0.46299999952316284 -45.62099838256836,7.75 -36.53099822998047,7.75 C-27.44099998474121,7.75 -22.85700035095215,0.3059999942779541 -22.85700035095215,-9.762999534606934 C-22.85700035095215,-9.762999534606934 -22.85700035095215,-37.54199981689453 -22.85700035095215,-37.54199981689453 C-22.85700035095215,-37.54199981689453 -0.32899999618530273,-37.54199981689453 -0.32899999618530273,-37.54199981689453 C1.1990000009536743,-30.725000381469727 3.510999917984009,-24.06399917602539 6.566999912261963,-17.795000076293945 C7.9770002365112305,-24.024999618530273 11.541999816894531,-29.58799934387207 16.674999237060547,-33.50600051879883 C21.808000564575195,-37.42399978637695 28.232999801635742,-39.46099853515625 34.698001861572266,-39.1870002746582 C38.53799819946289,-39.1870002746582 42.37699890136719,-38.481998443603516 45.94200134277344,-36.99300003051758 C49.46799850463867,-35.542999267578125 52.72100067138672,-33.3489990234375 55.42399978637695,-30.645999908447266z"></path></g></g></g></svg>