<?xml version="1.0" encoding="UTF-8" standalone="no"?>
<svg
   xmlns:dc="http://purl.org/dc/elements/1.1/"
   xmlns:cc="http://creativecommons.org/ns#"
   xmlns:rdf="http://www.w3.org/1999/02/22-rdf-syntax-ns#"
   xmlns:svg="http://www.w3.org/2000/svg"
   xmlns="http://www.w3.org/2000/svg"
   xmlns:sodipodi="http://sodipodi.sourceforge.net/DTD/sodipodi-0.dtd"
   xmlns:inkscape="http://www.inkscape.org/namespaces/inkscape"
   fill="none"
   aria-hidden="true"
   viewBox="0 0 24 24"
   role="img"
   version="1.1"
   id="svg6"
   sodipodi:docname="youtube.svg"
   inkscape:version="0.92.4 (5da689c313, 2019-01-14)">
  <metadata
     id="metadata12">
    <rdf:RDF>
      <cc:Work
         rdf:about="">
        <dc:format>image/svg+xml</dc:format>
        <dc:type
           rdf:resource="http://purl.org/dc/dcmitype/StillImage" />
      </cc:Work>
    </rdf:RDF>
  </metadata>
  <defs
     id="defs10" />
  <sodipodi:namedview
     pagecolor="#ffffff"
     bordercolor="#666666"
     borderopacity="1"
     objecttolerance="10"
     gridtolerance="10"
     guidetolerance="10"
     inkscape:pageopacity="0"
     inkscape:pageshadow="2"
     inkscape:window-width="1920"
     inkscape:window-height="991"
     id="namedview8"
     showgrid="false"
     inkscape:zoom="9.8333333"
     inkscape:cx="-0.40677966"
     inkscape:cy="12"
     inkscape:window-x="-9"
     inkscape:window-y="-9"
     inkscape:window-maximized="1"
     inkscape:current-layer="svg6" />
  <path
     vector-effect="non-scaling-stroke"
     stroke="var(--icon-color, #001e00)"
     stroke-linecap="round"
     stroke-linejoin="round"
     stroke-width="1.5"
     d="M19 6.384a2.24 2.24 0 011.59 1.6c.274 1.45.412 2.923.41 4.4a23.468 23.468 0 01-.38 4.36A2.24 2.24 0 0119 18.382c-2.323.28-4.661.407-7 .38-2.339.027-4.677-.1-7-.38a2.24 2.24 0 01-1.59-1.6 23.47 23.47 0 01-.41-4.4 23.526 23.526 0 01.38-4.36A2.24 2.24 0 015 6.384a53.345 53.345 0 017-.38c2.339-.027 4.677.1 7 .38v0z"
     clip-rule="evenodd"
     id="path2"
     style="stroke:#ffffff" />
  <path
     vector-effect="non-scaling-stroke"
     stroke="var(--icon-color, #001e00)"
     stroke-linecap="round"
     stroke-linejoin="round"
     stroke-width="1.5"
     d="M14.87 12.383l-4.71-2.68v5.36l4.71-2.68z"
     clip-rule="evenodd"
     id="path4"
     style="stroke:#ffffff" />
</svg>
